<?xml version="1.0" encoding="UTF-8"?>
<svg version="1.1" xmlns="http://www.w3.org/2000/svg" width="140" height="65" viewBox="0 0 140 65">
<path d="M0 0 C0.75081345 -0.00478363 1.50162689 -0.00956726 2.27519226 -0.01449585 C3.85950827 -0.01788806 5.44389492 -0.00873283 7.02807617 0.01220703 C9.432448 0.03887648 11.83210489 0.01250206 14.23632812 -0.01953125 C28.07126883 -0.05106788 28.07126883 -0.05106788 33.77050781 4.28710938 C37.93387178 8.48320887 39.9533138 12.49988405 40.44921875 18.3515625 C40.36130057 23.13431159 38.95983612 26.81211227 36.13671875 30.6640625 C30.40817928 36.03373755 25.3862429 36.84074791 17.63671875 37.0390625 C16.32703125 37.08804688 15.01734375 37.13703125 13.66796875 37.1875 C10.13671875 36.6640625 10.13671875 36.6640625 7.66796875 34.140625 C6.91 32.91472656 6.91 32.91472656 6.13671875 31.6640625 C7.21072983 28.74888958 7.91482051 26.88596074 10.13671875 24.6640625 C13.03639632 24.35731018 15.85455053 24.15232879 18.76171875 24.0390625 C19.96441406 23.98105469 19.96441406 23.98105469 21.19140625 23.921875 C23.17279431 23.82752319 25.1547252 23.74470035 27.13671875 23.6640625 C27.22953125 21.776875 27.22953125 21.776875 27.32421875 19.8515625 C27.35902344 19.14386719 27.39382812 18.43617187 27.4296875 17.70703125 C27.27678495 15.6098452 27.27678495 15.6098452 25.9987793 13.93432617 C23.36412099 12.13701043 21.32825044 12.22970961 18.15625 12.15234375 C16.41118164 12.09916992 16.41118164 12.09916992 14.63085938 12.04492188 C13.41591797 12.02236328 12.20097656 11.99980469 10.94921875 11.9765625 C9.72267578 11.94240234 8.49613281 11.90824219 7.23242188 11.87304688 C4.20061197 11.7904684 1.16909496 11.72134881 -1.86328125 11.6640625 C-1.85280762 12.70860596 -1.84233398 13.75314941 -1.83154297 14.8293457 C-1.79534953 18.70382257 -1.7723832 22.57828449 -1.75341797 26.45288086 C-1.74335888 28.12998975 -1.72971003 29.80708111 -1.71240234 31.48413086 C-1.68814973 33.89441252 -1.67679735 36.30446236 -1.66796875 38.71484375 C-1.65764618 39.46494217 -1.64732361 40.21504059 -1.63668823 40.98786926 C-1.63587325 44.76707029 -1.71271058 46.43820649 -3.86328125 49.6640625 C-7.36328125 49.9765625 -7.36328125 49.9765625 -10.86328125 49.6640625 C-13.21598905 47.3113547 -13.12297279 46.85041866 -13.16967773 43.66088867 C-13.18566513 42.83630661 -13.20165253 42.01172455 -13.21812439 41.16215515 C-13.22348709 40.26946426 -13.22884979 39.37677338 -13.234375 38.45703125 C-13.24340347 37.53948563 -13.25243195 36.62194 -13.26173401 35.67658997 C-13.2762591 33.73226189 -13.28512884 31.78788469 -13.28881836 29.84350586 C-13.30069417 26.87334246 -13.349839 23.90527016 -13.40039062 20.93554688 C-13.40985702 19.04688515 -13.41709102 17.15821064 -13.421875 15.26953125 C-13.44140732 14.38291306 -13.46093964 13.49629486 -13.48106384 12.58280945 C-13.45008373 8.33144956 -13.23156411 6.21534277 -10.81982422 2.60522461 C-7.16119871 0.2030998 -4.24435716 -0.06010778 0 0 Z " fill="#38B7E7" transform="translate(12.86328125,15.3359375)"/>
<path d="M0 0 C5.71122307 3.42458676 9.61811846 7.63821128 11.640625 14.05859375 C11.9494145 17.10424871 11.96540135 20.12432825 11.953125 23.18359375 C11.96923828 23.99441406 11.98535156 24.80523437 12.00195312 25.640625 C12.00259766 26.42050781 12.00324219 27.20039062 12.00390625 28.00390625 C12.00688721 28.71047363 12.00986816 29.41704102 12.01293945 30.14501953 C11.52338897 32.66114849 10.69747286 33.55975043 8.640625 35.05859375 C5.078125 34.93359375 5.078125 34.93359375 1.640625 34.05859375 C-1.14986603 29.87285721 -0.74679754 25.73893017 -0.83789062 20.86328125 C-0.972141 16.75499168 -0.972141 16.75499168 -2.64453125 13.0859375 C-4.69263381 11.85894211 -5.97772635 11.62560445 -8.359375 11.62109375 C-9.3803125 11.59208984 -9.3803125 11.59208984 -10.421875 11.5625 C-12.48727787 11.93099467 -12.48727787 11.93099467 -14.08203125 13.6171875 C-16.35239821 17.95657389 -15.7845088 22.72098992 -15.85546875 27.52734375 C-16.359375 31.05859375 -16.359375 31.05859375 -18.19921875 33.53125 C-20.359375 35.05859375 -20.359375 35.05859375 -23.484375 34.99609375 C-26.359375 34.05859375 -26.359375 34.05859375 -28.359375 31.05859375 C-29.87956472 14.17741718 -29.87956472 14.17741718 -25.76953125 7.63671875 C-19.1232534 0.198779 -9.80033834 -3.9103999 0 0 Z " fill="#39B8E7" transform="translate(83.359375,16.94140625)"/>
<path d="M0 0 C5.38533402 3.16902337 9.17260848 7.2832063 11.66015625 13.046875 C12.06609147 16.225438 11.98466657 19.40742254 11.97265625 22.609375 C11.98876953 23.47240234 12.00488281 24.33542969 12.02148438 25.22460938 C12.02212891 26.05412109 12.02277344 26.88363281 12.0234375 27.73828125 C12.02641846 28.49310791 12.02939941 29.24793457 12.0324707 30.02563477 C11.55505417 32.61745871 10.78589437 33.51767462 8.66015625 35.046875 C5.09765625 34.921875 5.09765625 34.921875 1.66015625 34.046875 C-1.13033478 29.86113846 -0.72726629 25.72721142 -0.81835938 20.8515625 C-0.95397204 16.73920874 -0.95397204 16.73920874 -2.62890625 13.06640625 C-5.60394429 11.29360961 -9.0106196 11.55483995 -12.33984375 12.046875 C-14.53834643 13.00209463 -14.53834643 13.00209463 -16.33984375 14.046875 C-16.98819029 12.777322 -17.6334219 11.50617794 -18.27734375 10.234375 C-18.63699219 9.52667969 -18.99664062 8.81898437 -19.3671875 8.08984375 C-20.33984375 6.046875 -20.33984375 6.046875 -21.33984375 3.046875 C-14.5675056 -1.04208388 -7.68210301 -3.12927067 0 0 Z " fill="#EA8C10" transform="translate(111.33984375,16.953125)"/>
<path d="M0 0 C2.96170785 0.53158859 3.67162018 1.02435043 5.4375 3.4375 C6.00391136 7.55775764 5.91017023 11.67816935 5.88354492 15.83422852 C5.87504133 17.86512819 5.90378379 19.8932069 5.93554688 21.92382812 C5.93490234 23.20580078 5.93425781 24.48777344 5.93359375 25.80859375 C5.93544678 26.98349365 5.9372998 28.15839355 5.93920898 29.36889648 C5.33845832 33.04326878 4.41653393 34.2602681 1.4375 36.4375 C-1.6875 36.375 -1.6875 36.375 -4.5625 35.4375 C-7.93557971 30.37788043 -6.93157315 24.44166867 -6.9375 18.5 C-6.96199219 17.21158203 -6.98648438 15.92316406 -7.01171875 14.59570312 C-7.01558594 13.35884766 -7.01945312 12.12199219 -7.0234375 10.84765625 C-7.03165527 9.71465088 -7.03987305 8.58164551 -7.04833984 7.41430664 C-6.33703013 3.05601552 -4.40320901 0.75176739 0 0 Z " fill="#3AB8E7" transform="translate(133.5625,15.5625)"/>
<path d="M0 0 C3.81613924 0.06155063 3.81613924 0.06155063 6.125 1.9375 C7.42118989 5.015951 7.60788863 7.00126368 7.125 10.3125 C5.5625 12.6875 5.5625 12.6875 3.125 14.3125 C-2.73810905 15.03253094 -2.73810905 15.03253094 -5.75 13.125 C-7.22905406 10.74207957 -7.74091307 9.12832552 -7.875 6.3125 C-4.91701681 0.39653361 -4.91701681 0.39653361 0 0 Z " fill="#E98C11" transform="translate(102.875,-0.3125)"/>
<path d="M0 0 C2.42194927 1.53390121 2.88729401 2.69408374 3.875 5.375 C4.03673305 8.77139406 2.96039694 10.28560423 1 13 C0 14 0 14 -3.3125 14.3125 C-7 14 -7 14 -9.4375 12.375 C-11.47161336 9.28314769 -11.60605429 7.63632575 -11 4 C-8.05323917 -0.47907646 -5.13567732 -0.65363166 0 0 Z " fill="#3CB8E7" transform="translate(79,0)"/>
<path d="M0 0 C1.875 0.30859375 1.875 0.30859375 3.875 1.30859375 C5.50432095 4.56723565 5.40173518 7.74756719 4.875 11.30859375 C3.8125 13.30859375 3.8125 13.30859375 1.875 14.30859375 C-2.05594707 14.8088961 -4.2255787 14.90820795 -7.5625 12.68359375 C-9.58432313 9.6104226 -9.65255517 7.92611494 -9.125 4.30859375 C-7.22735706 -0.19830824 -4.46860694 -0.27107358 0 0 Z " fill="#3CB9E7" transform="translate(135.125,-0.30859375)"/>
<path d="M0 0 C0.66 0.33 1.32 0.66 2 1 C0.90344712 2.31886772 -0.20253423 3.62990057 -1.3125 4.9375 C-1.92738281 5.66839844 -2.54226562 6.39929688 -3.17578125 7.15234375 C-5 9 -5 9 -8 10 C-6.5682479 4.98886765 -4.01554307 3.05530451 0 0 Z " fill="#46BCE8" transform="translate(65,18)"/>
<path d="M0 0 C2.64 0 5.28 0 8 0 C8.66 1.32 9.32 2.64 10 4 C9.29875 3.67 8.5975 3.34 7.875 3 C4.73996884 1.90955438 2.29436818 1.84677357 -1 2 C-0.67 1.34 -0.34 0.68 0 0 Z " fill="#EB9625" transform="translate(99,0)"/>
</svg>
